<svg width="36" height="36" viewBox="0 0 36 36" fill="none" xmlns="http://www.w3.org/2000/svg">
<g opacity="0.4">
<path d="M33 8.70007C31.8725 9.18921 30.6801 9.51257 29.46 9.66007C30.7473 8.89105 31.7119 7.68124 32.175 6.25507C30.9653 6.97517 29.6411 7.48252 28.26 7.75507C27.3368 6.75393 26.1075 6.08751 24.7647 5.86035C23.422 5.63318 22.0418 5.85811 20.8407 6.49985C19.6396 7.1416 18.6854 8.16387 18.1279 9.40632C17.5703 10.6488 17.4409 12.0412 17.76 13.3651C15.3141 13.2414 12.9217 12.6045 10.738 11.4959C8.5543 10.3872 6.62827 8.83161 5.085 6.93007C4.54371 7.87532 4.25928 8.9458 4.26 10.0351C4.25808 11.0466 4.50633 12.043 4.98263 12.9354C5.45894 13.8278 6.14853 14.5886 6.99 15.1501C6.01197 15.1235 5.05483 14.861 4.2 14.3851V14.4601C4.20733 15.8774 4.70399 17.2487 5.60597 18.342C6.50795 19.4353 7.75988 20.1835 9.15 20.4601C8.61488 20.6229 8.05931 20.7088 7.5 20.7151C7.11284 20.7105 6.72663 20.6754 6.345 20.6101C6.74086 21.8293 7.50693 22.8948 8.53661 23.6583C9.56629 24.4218 10.8084 24.8454 12.09 24.8701C9.9258 26.573 7.25383 27.5024 4.5 27.5101C3.9986 27.5117 3.4976 27.4817 3 27.4201C5.81164 29.2355 9.08822 30.1992 12.435 30.1951C14.7445 30.2191 17.0357 29.7826 19.1747 28.9112C21.3136 28.0398 23.2575 26.7509 24.8928 25.1198C26.5281 23.4887 27.8219 21.5482 28.6988 19.4114C29.5757 17.2747 30.0181 14.9847 30 12.6751C30 12.4201 30 12.1501 30 11.8801C31.177 11.0023 32.1922 9.92621 33 8.70007Z" fill="#FE0002"/>
</g>
</svg>
