<svg width="118" height="32" viewBox="0 0 118 32" fill="none" xmlns="http://www.w3.org/2000/svg">
<g id="Group 45">
<rect id="Rectangle 43" opacity="0.1" y="27.933" width="5.81066" height="3.25885" rx="1.62942" fill="#FE0002"/>
<rect id="Rectangle 72" opacity="0.1" x="10.167" y="25.6052" width="5.81066" height="5.58659" rx="2.7933" fill="#FE0002"/>
<rect id="Rectangle 73" opacity="0.1" x="20.3379" y="23.2775" width="5.81066" height="7.91434" rx="2.90533" fill="#FE0002"/>
<rect id="Rectangle 44" opacity="0.3" x="30.5049" y="21.648" width="5.81066" height="9.60196" rx="2.90533" fill="#FE0002"/>
<rect id="Rectangle 74" opacity="0.3" x="40.6748" y="18.622" width="5.81066" height="12.5698" rx="2.90533" fill="#FE0002"/>
<rect id="Rectangle 75" opacity="0.3" x="50.8428" y="16.2942" width="5.81066" height="14.8976" rx="2.90533" fill="#FE0002"/>
<rect id="Rectangle 45" opacity="0.5" x="61.0127" y="13.9665" width="5.81066" height="17.2253" rx="2.90533" fill="#FE0002"/>
<rect id="Rectangle 76" opacity="0.5" x="71.1797" y="11.6387" width="5.81066" height="19.5531" rx="2.90533" fill="#FE0002"/>
<rect id="Rectangle 77" opacity="0.5" x="81.126" width="5.73616" height="31" rx="2.86808" fill="#FE0002"/>
<rect id="Rectangle 46" opacity="0.7" x="91.7783" y="10" width="5.73616" height="21" rx="2.86808" fill="#FE0002"/>
<rect id="Rectangle 78" opacity="0.7" x="101.612" y="20" width="5.73616" height="11" rx="2.86808" fill="#FE0002"/>
<rect id="Rectangle 79" opacity="0.7" x="112.264" y="30" width="5.73616" height="1" rx="0.5" fill="#FE0002"/>
</g>
</svg>
