<svg width="36" height="36" viewBox="0 0 36 36" fill="none" xmlns="http://www.w3.org/2000/svg">
<g opacity="0.4">
<path d="M30.7048 2.99997H5.29484C5.00921 2.996 4.72559 3.04834 4.46019 3.15399C4.19479 3.25965 3.9528 3.41655 3.74804 3.61573C3.54328 3.81492 3.37977 4.05249 3.26683 4.31488C3.1539 4.57727 3.09376 4.85933 3.08984 5.14497V30.855C3.09376 31.1406 3.1539 31.4227 3.26683 31.685C3.37977 31.9474 3.54328 32.185 3.74804 32.3842C3.9528 32.5834 4.19479 32.7403 4.46019 32.8459C4.72559 32.9516 5.00921 33.0039 5.29484 33H30.7048C30.9905 33.0039 31.2741 32.9516 31.5395 32.8459C31.8049 32.7403 32.0469 32.5834 32.2516 32.3842C32.4564 32.185 32.6199 31.9474 32.7329 31.685C32.8458 31.4227 32.9059 31.1406 32.9098 30.855V5.14497C32.9059 4.85933 32.8458 4.57727 32.7329 4.31488C32.6199 4.05249 32.4564 3.81492 32.2516 3.61573C32.0469 3.41655 31.8049 3.25965 31.5395 3.15399C31.2741 3.04834 30.9905 2.996 30.7048 2.99997ZM12.1348 28.11H7.63484V14.61H12.1348V28.11ZM9.88484 12.72C9.26424 12.72 8.66905 12.4734 8.23021 12.0346C7.79138 11.5958 7.54484 11.0006 7.54484 10.38C7.54484 9.75936 7.79138 9.16417 8.23021 8.72534C8.66905 8.2865 9.26424 8.03997 9.88484 8.03997C10.2144 8.00259 10.5481 8.03525 10.8642 8.13579C11.1802 8.23633 11.4715 8.4025 11.7188 8.62341C11.9662 8.84432 12.1641 9.11498 12.2996 9.41769C12.4352 9.72039 12.5052 10.0483 12.5052 10.38C12.5052 10.7116 12.4352 11.0395 12.2996 11.3422C12.1641 11.6449 11.9662 11.9156 11.7188 12.1365C11.4715 12.3574 11.1802 12.5236 10.8642 12.6241C10.5481 12.7247 10.2144 12.7573 9.88484 12.72ZM28.3648 28.11H23.8648V20.865C23.8648 19.05 23.2198 17.865 21.5848 17.865C21.0788 17.8687 20.5861 18.0274 20.1731 18.3197C19.7601 18.6121 19.4466 19.024 19.2748 19.5C19.1575 19.8525 19.1066 20.2238 19.1248 20.595V28.095H14.6248C14.6248 28.095 14.6248 15.825 14.6248 14.595H19.1248V16.5C19.5336 15.7906 20.1282 15.2062 20.8445 14.8098C21.5608 14.4133 22.3717 14.2197 23.1898 14.25C26.1898 14.25 28.3648 16.185 28.3648 20.34V28.11Z" fill="#FE0002"/>
</g>
</svg>
