<svg width="80" height="80" viewBox="0 0 80 80" fill="none" xmlns="http://www.w3.org/2000/svg">
<g clip-path="url(#clip0_1032_544)">
<path d="M33.334 25.3755C33.334 25.6281 33.4343 25.8703 33.6129 26.0489C33.7915 26.2275 34.0338 26.3278 34.2864 26.3279H45.7149C45.9675 26.3279 46.2098 26.2275 46.3884 26.0489C46.567 25.8703 46.6673 25.6281 46.6673 25.3755C46.6673 25.1229 46.567 24.8806 46.3884 24.702C46.2098 24.5234 45.9675 24.4231 45.7149 24.4231H34.2864C34.0338 24.4231 33.7915 24.5235 33.6129 24.7021C33.4343 24.8807 33.334 25.1229 33.334 25.3755V25.3755ZM45.7149 29.185H34.2864C34.0338 29.185 33.7915 29.2853 33.6129 29.4639C33.4343 29.6425 33.334 29.8848 33.334 30.1374C33.334 30.39 33.4343 30.6322 33.6129 30.8108C33.7915 30.9894 34.0338 31.0898 34.2864 31.0898H45.7149C45.9675 31.0898 46.2098 30.9894 46.3884 30.8108C46.567 30.6322 46.6673 30.39 46.6673 30.1374C46.6673 29.8848 46.567 29.6425 46.3884 29.4639C46.2098 29.2853 45.9675 29.185 45.7149 29.185Z" fill="#FE0002"/>
<path d="M0.952381 71.0896C1.47837 71.0896 1.90476 70.6632 1.90476 70.1372C1.90476 69.6112 1.47837 69.1848 0.952381 69.1848C0.426395 69.1848 0 69.6112 0 70.1372C0 70.6632 0.426395 71.0896 0.952381 71.0896Z" fill="#736E6E"/>
<path d="M5.23837 69.1851H3.8098C3.55722 69.1851 3.31497 69.2854 3.13637 69.464C2.95776 69.6426 2.85742 69.8849 2.85742 70.1374C2.85742 70.39 2.95776 70.6323 3.13637 70.8109C3.31497 70.9895 3.55722 71.0898 3.8098 71.0898H5.23837C5.49096 71.0898 5.7332 70.9895 5.91181 70.8109C6.09042 70.6323 6.19076 70.39 6.19076 70.1374C6.19076 69.8849 6.09042 69.6426 5.91181 69.464C5.7332 69.2854 5.49096 69.1851 5.23837 69.1851ZM76.1908 69.1851H74.7622C74.5096 69.1851 74.2674 69.2854 74.0887 69.464C73.9101 69.6426 73.8098 69.8849 73.8098 70.1374C73.8098 70.39 73.9101 70.6323 74.0887 70.8109C74.2674 70.9895 74.5096 71.0898 74.7622 71.0898H76.1908C76.4433 71.0898 76.6856 70.9895 76.8642 70.8109C77.0428 70.6323 77.1431 70.39 77.1431 70.1374C77.1431 69.8849 77.0428 69.6426 76.8642 69.464C76.6856 69.2854 76.4433 69.1851 76.1908 69.1851Z" fill="#736E6E"/>
<path d="M79.0481 71.0896C79.5741 71.0896 80.0005 70.6632 80.0005 70.1372C80.0005 69.6112 79.5741 69.1848 79.0481 69.1848C78.5221 69.1848 78.0957 69.6112 78.0957 70.1372C78.0957 70.6632 78.5221 71.0896 79.0481 71.0896Z" fill="#736E6E"/>
<path d="M56.264 72.9946H52.308C52.0686 73.0138 51.8451 73.1225 51.6822 73.299C51.5193 73.4755 51.4289 73.7068 51.4289 73.947C51.4289 74.1872 51.5193 74.4186 51.6822 74.5951C51.8451 74.7716 52.0686 74.8802 52.308 74.8994H56.264C56.5035 74.8802 56.7269 74.7716 56.8898 74.5951C57.0527 74.4186 57.1432 74.1872 57.1432 73.947C57.1432 73.7068 57.0527 73.4755 56.8898 73.299C56.7269 73.1225 56.5035 73.0138 56.264 72.9946V72.9946ZM27.6926 72.9946H23.7365C23.4971 73.0138 23.2737 73.1225 23.1108 73.299C22.9479 73.4755 22.8574 73.7068 22.8574 73.947C22.8574 74.1872 22.9479 74.4186 23.1108 74.5951C23.2737 74.7716 23.4971 74.8802 23.7365 74.8994H27.6926C27.932 74.8802 28.1554 74.7716 28.3184 74.5951C28.4813 74.4186 28.5717 74.1872 28.5717 73.947C28.5717 73.7068 28.4813 73.4755 28.3184 73.299C28.1554 73.1225 27.932 73.0138 27.6926 72.9946V72.9946ZM49.5241 72.9946H30.4765C30.2239 72.9946 29.9817 73.095 29.803 73.2736C29.6244 73.4522 29.5241 73.6944 29.5241 73.947C29.5241 74.1996 29.6244 74.4418 29.803 74.6204C29.9817 74.7991 30.2239 74.8994 30.4765 74.8994H38.067V75.8518H34.286C34.0334 75.8518 33.7912 75.9521 33.6126 76.1307C33.434 76.3093 33.3336 76.5516 33.3336 76.8042C33.3336 77.0567 33.434 77.299 33.6126 77.4776C33.7912 77.6562 34.0334 77.7565 34.286 77.7565H46.1908C46.4434 77.7565 46.6856 77.6562 46.8642 77.4776C47.0428 77.299 47.1432 77.0567 47.1432 76.8042C47.1432 76.5516 47.0428 76.3093 46.8642 76.1307C46.6856 75.9521 46.4434 75.8518 46.1908 75.8518H41.9336V74.8994H49.5241C49.7767 74.8994 50.0189 74.7991 50.1975 74.6204C50.3762 74.4418 50.4765 74.1996 50.4765 73.947C50.4765 73.6944 50.3762 73.4522 50.1975 73.2736C50.0189 73.095 49.7767 72.9946 49.5241 72.9946Z" fill="#FE0002"/>
<path d="M71.7716 69.1849H42.8567V48.5421C43.413 48.345 43.8948 47.9807 44.2358 47.499C44.5768 47.0173 44.7604 46.4418 44.7614 45.8516V38.1664C46.601 37.9332 48.2925 37.0378 49.5196 35.6476C50.7466 34.2574 51.4251 32.4678 51.4281 30.6135V19.1849H52.3805C52.6331 19.1849 52.8753 19.0846 53.0539 18.906C53.2325 18.7274 53.3329 18.4851 53.3329 18.2326C53.3329 17.98 53.2325 17.7377 53.0539 17.5591C52.8753 17.3805 52.6331 17.2802 52.3805 17.2802H46.19V10.6135C46.19 10.3609 46.0897 10.1187 45.9111 9.94008C45.7325 9.76147 45.4902 9.66113 45.2376 9.66113C44.9851 9.66113 44.7428 9.76147 44.5642 9.94008C44.3856 10.1187 44.2853 10.3609 44.2853 10.6135V17.2802H35.7138V10.6135C35.7138 10.3609 35.6135 10.1187 35.4349 9.94008C35.2563 9.76147 35.014 9.66113 34.7614 9.66113C34.5089 9.66113 34.2666 9.76147 34.088 9.94008C33.9094 10.1187 33.8091 10.3609 33.8091 10.6135V17.2802H27.6186C27.366 17.2802 27.1238 17.3805 26.9452 17.5591C26.7665 17.7377 26.6662 17.98 26.6662 18.2326C26.6662 18.4851 26.7665 18.7274 26.9452 18.906C27.1238 19.0846 27.366 19.1849 27.6186 19.1849H28.571V30.6135C28.574 32.4678 29.2525 34.2574 30.4795 35.6476C31.7066 37.0378 33.3981 37.9332 35.2376 38.1664V45.8516C35.2386 46.4418 35.4223 47.0173 35.7633 47.499C36.1043 47.9807 36.5861 48.345 37.1424 48.5421V69.1849H8.22749C8.092 69.1672 7.9543 69.1787 7.82357 69.2184C7.69284 69.2582 7.5721 69.3254 7.46942 69.4155C7.36673 69.5057 7.28446 69.6167 7.22809 69.7411C7.17173 69.8656 7.14258 70.0007 7.14258 70.1373C7.14258 70.274 7.17173 70.409 7.22809 70.5335C7.28446 70.658 7.36673 70.769 7.46942 70.8591C7.5721 70.9493 7.69284 71.0165 7.82357 71.0562C7.9543 71.096 8.092 71.1074 8.22749 71.0897H71.7716C71.9071 71.1074 72.0448 71.096 72.1755 71.0562C72.3062 71.0165 72.427 70.9493 72.5297 70.8591C72.6324 70.769 72.7146 70.658 72.771 70.5335C72.8274 70.409 72.8565 70.274 72.8565 70.1373C72.8565 70.0007 72.8274 69.8656 72.771 69.7411C72.7146 69.6167 72.6324 69.5057 72.5297 69.4155C72.427 69.3254 72.3062 69.2582 72.1755 69.2184C72.0448 69.1787 71.9071 69.1672 71.7716 69.1849ZM42.8567 45.8516C42.8564 46.1041 42.756 46.3462 42.5774 46.5247C42.3989 46.7033 42.1568 46.8037 41.9043 46.804H38.0948C37.8423 46.8037 37.6002 46.7033 37.4216 46.5248C37.2431 46.3462 37.1427 46.1041 37.1424 45.8516V38.2326H42.8567V45.8516ZM36.19 36.3278C34.675 36.3261 33.2226 35.7235 32.1513 34.6522C31.0801 33.581 30.4775 32.1285 30.4757 30.6135V19.1849H49.5234V30.6135C49.5217 32.1285 48.9191 33.581 47.8478 34.6523C46.7765 35.7235 45.3241 36.3261 43.8091 36.3278H36.19ZM39.0472 48.7088H40.9519V69.1849H39.0472V48.7088ZM59.1305 14.9029C59.3905 14.7923 59.6118 14.607 59.7665 14.3705C59.9211 14.1341 60.0022 13.8571 59.9994 13.5746C59.9967 13.292 59.9102 13.0167 59.751 12.7833C59.5917 12.5499 59.3668 12.369 59.1047 12.2634C58.8427 12.1578 58.5551 12.1323 58.2786 12.1902C58.002 12.248 57.7488 12.3865 57.551 12.5883C57.3532 12.79 57.2196 13.0458 57.1672 13.3235C57.1148 13.6011 57.1458 13.8881 57.2565 14.148C57.4053 14.4964 57.6861 14.7715 58.0374 14.913C58.3887 15.0545 58.7818 15.0509 59.1305 14.9029ZM58.2912 12.9313C58.4212 12.876 58.5646 12.8604 58.7035 12.8866C58.8423 12.9128 58.9702 12.9796 59.0711 13.0785C59.1719 13.1774 59.2412 13.304 59.2701 13.4423C59.299 13.5806 59.2863 13.7244 59.2335 13.8554C59.1807 13.9864 59.0903 14.0989 58.9736 14.1785C58.8569 14.2581 58.7192 14.3014 58.5779 14.3028C58.4367 14.3041 58.2982 14.2636 58.1799 14.1863C58.0617 14.1089 57.9691 13.9983 57.9137 13.8683C57.8397 13.6939 57.8379 13.4974 57.9087 13.3217C57.9794 13.146 58.117 13.0056 58.2912 12.9313H58.2912ZM65.2376 28.2326C65.0493 28.2326 64.8651 28.2884 64.7085 28.3931C64.5519 28.4977 64.4298 28.6465 64.3577 28.8205C64.2857 28.9945 64.2668 29.186 64.3036 29.3707C64.3403 29.5555 64.431 29.7252 64.5642 29.8584C64.6974 29.9916 64.8671 30.0823 65.0518 30.119C65.2366 30.1558 65.4281 30.1369 65.6021 30.0648C65.7761 29.9927 65.9249 29.8707 66.0295 29.7141C66.1342 29.5574 66.19 29.3733 66.19 29.1849C66.1897 28.9324 66.0893 28.6904 65.9108 28.5118C65.7322 28.3333 65.4901 28.2329 65.2376 28.2326ZM65.2376 29.6611C65.1435 29.6611 65.0514 29.6332 64.9731 29.5809C64.8948 29.5286 64.8337 29.4542 64.7977 29.3672C64.7617 29.2802 64.7522 29.1844 64.7706 29.092C64.789 28.9997 64.8343 28.9148 64.9009 28.8482C64.9675 28.7816 65.0524 28.7363 65.1447 28.7179C65.2371 28.6995 65.3329 28.709 65.4199 28.745C65.5069 28.781 65.5812 28.8421 65.6336 28.9204C65.6859 28.9987 65.7138 29.0908 65.7138 29.1849C65.7137 29.3112 65.6635 29.4323 65.5742 29.5215C65.4849 29.6108 65.3639 29.661 65.2376 29.6611V29.6611Z" fill="#736E6E"/>
<path d="M20.5528 35.3755C20.3644 35.3755 20.1803 35.4313 20.0236 35.536C19.867 35.6406 19.745 35.7894 19.6729 35.9634C19.6008 36.1374 19.5819 36.3289 19.6187 36.5137C19.6554 36.6984 19.7461 36.8681 19.8793 37.0013C20.0125 37.1345 20.1822 37.2252 20.367 37.2619C20.5517 37.2987 20.7432 37.2798 20.9172 37.2077C21.0912 37.1357 21.24 37.0136 21.3446 36.857C21.4493 36.7003 21.5051 36.5162 21.5051 36.3279C21.5049 36.0754 21.4044 35.8333 21.2259 35.6547C21.0473 35.4762 20.8053 35.3758 20.5528 35.3755V35.3755ZM20.5528 36.804C20.4586 36.804 20.3665 36.7761 20.2882 36.7238C20.2099 36.6715 20.1489 36.5971 20.1128 36.5101C20.0768 36.4231 20.0673 36.3273 20.0857 36.235C20.1041 36.1426 20.1494 36.0577 20.216 35.9911C20.2826 35.9245 20.3675 35.8792 20.4599 35.8608C20.5522 35.8424 20.648 35.8519 20.735 35.8879C20.822 35.924 20.8964 35.985 20.9487 36.0633C21.001 36.1416 21.029 36.2337 21.029 36.3279C21.0288 36.4541 20.9786 36.5752 20.8893 36.6644C20.8001 36.7537 20.679 36.8039 20.5528 36.804ZM68.5712 2.24365C68.3829 2.24365 68.1987 2.29951 68.0421 2.40416C67.8855 2.50881 67.7634 2.65755 67.6914 2.83157C67.6193 3.0056 67.6004 3.19709 67.6372 3.38183C67.6739 3.56658 67.7646 3.73628 67.8978 3.86947C68.031 4.00266 68.2007 4.09337 68.3854 4.13011C68.5702 4.16686 68.7617 4.148 68.9357 4.07592C69.1097 4.00384 69.2585 3.88177 69.3631 3.72515C69.4678 3.56853 69.5236 3.3844 69.5236 3.19603C69.5233 2.94353 69.4229 2.70146 69.2444 2.52292C69.0658 2.34437 68.8237 2.24394 68.5712 2.24365ZM68.5712 3.67222C68.4771 3.67222 68.385 3.6443 68.3067 3.59197C68.2284 3.53965 68.1673 3.46528 68.1313 3.37826C68.0953 3.29125 68.0858 3.19551 68.1042 3.10313C68.1226 3.01076 68.1679 2.92591 68.2345 2.85932C68.3011 2.79272 68.386 2.74737 68.4783 2.72899C68.5707 2.71062 68.6665 2.72005 68.7535 2.75609C68.8405 2.79213 68.9149 2.85317 68.9672 2.93148C69.0195 3.00979 69.0474 3.10185 69.0474 3.19603C69.0473 3.32229 68.9971 3.44334 68.9078 3.53261C68.8185 3.62189 68.6975 3.6721 68.5712 3.67222V3.67222ZM16.6665 16.5188C16.6665 16.3305 16.6106 16.1463 16.506 15.9897C16.4013 15.8331 16.2526 15.711 16.0786 15.639C15.9045 15.5669 15.713 15.548 15.5283 15.5848C15.3436 15.6215 15.1739 15.7122 15.0407 15.8454C14.9075 15.9786 14.8168 16.1483 14.78 16.333C14.7433 16.5178 14.7621 16.7093 14.8342 16.8833C14.9063 17.0573 15.0284 17.2061 15.185 17.3107C15.3416 17.4154 15.5257 17.4712 15.7141 17.4712C15.9666 17.4709 16.2087 17.3705 16.3872 17.192C16.5658 17.0134 16.6662 16.7713 16.6665 16.5188V16.5188ZM15.2379 16.5188C15.2379 16.4247 15.2658 16.3326 15.3182 16.2543C15.3705 16.176 15.4449 16.1149 15.5319 16.0789C15.6189 16.0429 15.7146 16.0334 15.807 16.0518C15.8994 16.0702 15.9842 16.1155 16.0508 16.1821C16.1174 16.2487 16.1628 16.3336 16.1811 16.4259C16.1995 16.5183 16.1901 16.6141 16.154 16.7011C16.118 16.7881 16.057 16.8625 15.9787 16.9148C15.9003 16.9671 15.8083 16.995 15.7141 16.995C15.5878 16.9949 15.4668 16.9447 15.3775 16.8554C15.2882 16.7661 15.238 16.6451 15.2379 16.5188Z" fill="#736E6E"/>
<path d="M5.18454 33L5.89263 32.0685L5.44549 31.8152L4.99073 32.858H4.97597L4.51406 31.8228L4.0593 32.0833L4.75978 32.9923V33.0076L3.66406 32.8657V33.3723L4.76692 33.2309V33.2457L4.0593 34.1547L4.48359 34.4228L4.96835 33.3723H4.98311L5.43025 34.4152L5.89978 34.1471L5.18454 33.2533V33.238L6.3093 33.3723V32.8657L5.18454 33.0147V33Z" fill="#FE0002"/>
<path d="M3.53758 4.0201L3.12996 4.54343L3.37425 4.69772L3.6533 4.09296H3.66187L3.91949 4.69343L4.18949 4.53915L3.77758 4.02391V4.01534L4.42568 4.09296V3.80105L3.77758 3.88677V3.87819L4.18568 3.342L3.92806 3.19629L3.66615 3.79677H3.65758L3.39187 3.2001L3.12996 3.35057L3.5333 3.87391V3.88248L2.90234 3.80105V4.09296L3.53758 4.01153V4.0201Z" fill="#FE0002"/>
<path d="M78.44 14.5511V14.0544L77.3367 14.2006V14.1858L78.0314 13.2725L77.5928 13.0239L77.1471 14.0468H77.1319L76.6795 13.0311L76.2328 13.2873L76.9205 14.1787V14.1934L75.8457 14.0544V14.5511L76.9276 14.4125V14.4273L76.2328 15.3187L76.6495 15.582L77.1252 14.5511H77.139L77.5776 15.5744L78.0386 15.3115L77.3367 14.4344V14.4196L78.44 14.5511Z" fill="#FE0002"/>
<path d="M30.6436 3.84565L31.2427 3.05804L30.8646 2.84375L30.4803 3.72613H30.4674L30.0765 2.84994L29.6917 3.07042L30.2846 3.83946V3.85232L29.3574 3.73232V4.16089L30.2908 4.04137V4.05375L29.6917 4.8228L30.0508 5.04994L30.4612 4.16089H30.4736L30.8517 5.04375L31.2488 4.81661L30.6436 4.05994V4.04756L31.5955 4.16089V3.73232L30.6436 3.85851V3.84565Z" fill="#FE0002"/>
</g>
<defs>
<clipPath id="clip0_1032_544">
<rect width="80" height="80" fill="white"/>
</clipPath>
</defs>
</svg>
