<svg width="182" height="181" viewBox="0 0 182 181" fill="none" xmlns="http://www.w3.org/2000/svg">
<g opacity="0.7">
<path d="M38.9816 139.745C40.2008 139.338 42.3627 137.351 42.3627 137.347C42.3627 137.343 40.6234 136.335 40.5056 136.286C39.1361 135.709 36.1492 135.4 35.0642 136.664C34.8926 136.879 34.7678 137.128 34.6978 137.394C34.6278 137.66 34.6142 137.938 34.6578 138.209C34.7014 138.481 34.8013 138.74 34.9511 138.971C35.1008 139.202 35.2971 139.399 35.5274 139.549C36.4865 140.232 37.9251 140.086 38.9816 139.745Z" fill="#9C9C9C"/>
<path d="M61.4983 120.588C61.5267 120.588 60.6042 118.788 60.5311 118.678C59.7183 117.459 57.3857 115.537 55.7846 115.992C55.5206 116.075 55.2771 116.212 55.0697 116.396C54.8623 116.579 54.6957 116.804 54.5808 117.055C54.4658 117.307 54.4051 117.58 54.4024 117.857C54.3998 118.134 54.4553 118.408 54.5655 118.662C55.0003 119.751 56.2804 120.425 57.3532 120.722C58.613 121.071 61.4942 120.592 61.4983 120.588Z" fill="#9C9C9C"/>
<path d="M45.357 145.397C46.4055 144.71 47.8522 142.414 47.9659 142.232C49.2776 143.062 50.6434 143.803 52.0541 144.45C52.8669 144.832 53.7121 145.194 54.5574 145.544C54.151 145.438 53.7812 145.353 53.7446 145.344C52.2695 145.149 49.307 145.641 48.5958 147.145C48.4844 147.399 48.4278 147.673 48.4297 147.951C48.4317 148.228 48.4922 148.502 48.6073 148.754C48.7224 149.007 48.8894 149.232 49.0975 149.415C49.3056 149.599 49.5501 149.736 49.815 149.819C50.9203 150.225 52.2532 149.693 53.2001 149.083C54.147 148.474 55.4149 146.527 55.744 146.011L56.7193 146.417C58.2839 147.039 59.8444 147.636 61.3602 148.303C61.8925 148.53 62.4086 148.778 62.9288 149.018C62.563 148.929 62.2583 148.856 62.2095 148.851C60.7343 148.656 57.7759 149.148 57.0607 150.652C56.9492 150.905 56.8927 151.18 56.8947 151.457C56.8967 151.734 56.9572 152.008 57.0723 152.26C57.1874 152.512 57.3545 152.737 57.5626 152.92C57.7707 153.103 58.0151 153.24 58.2798 153.322C59.3892 153.728 60.7384 153.196 61.665 152.586C62.5915 151.976 63.7537 150.221 64.152 149.611C64.6721 149.876 65.1964 150.14 65.6922 150.424C66.0254 150.623 66.3627 150.79 66.6878 151.009L67.655 151.631C68.2523 152.037 68.8741 152.476 69.4511 152.899C69.8575 153.192 70.2314 153.476 70.6134 153.76C70.0851 153.529 69.0407 153.09 68.9472 153.066C67.5209 152.659 64.5177 152.688 63.5871 154.065C63.438 154.298 63.3398 154.56 63.2989 154.834C63.258 155.108 63.2753 155.387 63.3497 155.654C63.4241 155.92 63.5539 156.168 63.7307 156.381C63.9075 156.594 64.1272 156.767 64.3755 156.89C65.4077 157.446 66.8138 157.137 67.8338 156.674C68.9432 156.166 70.6784 154.203 70.8735 153.956C71.5034 154.431 72.1129 154.898 72.6778 155.349C74.3277 156.654 75.7012 157.828 76.7416 158.747L77.5543 158.007C76.4652 157.089 75.0104 155.894 73.2589 154.569C72.6209 154.086 71.9301 153.578 71.227 153.066C71.6021 152.315 71.9332 151.543 72.2186 150.753C73.4662 150.879 75.815 150.233 76.1198 150.148C76.384 150.891 76.6318 151.619 76.8554 152.306C77.4974 154.268 77.9892 155.963 78.3508 157.308L79.2611 156.495C78.8832 155.24 78.3955 153.708 77.79 151.981C77.5259 151.225 77.2292 150.424 76.9122 149.603C77.1926 149.445 79.4521 148.128 80.1633 147.137C80.8094 146.234 81.3824 144.906 81.0329 143.78C80.9592 143.514 80.8304 143.266 80.6548 143.052C80.4793 142.839 80.261 142.665 80.014 142.541C79.7669 142.418 79.4967 142.347 79.2207 142.334C78.9447 142.322 78.6692 142.367 78.4118 142.467C76.8797 143.122 76.2702 146.06 76.4043 147.539C76.4043 147.628 76.6075 148.567 76.7375 149.164C76.6075 148.827 76.4856 148.502 76.3311 148.161C76.0629 147.478 75.7744 146.807 75.4696 146.084C75.3071 145.739 75.1486 145.393 74.982 145.044C74.8153 144.694 74.6203 144.341 74.4374 143.983C74.0026 143.17 73.519 142.358 73.011 141.545C73.6084 141.309 75.7094 140.439 76.4896 139.643C77.2699 138.846 78.0339 137.611 77.855 136.461C77.8236 136.186 77.7347 135.921 77.594 135.684C77.4534 135.446 77.2642 135.24 77.0387 135.08C76.8132 134.92 76.5566 134.81 76.2856 134.756C76.0145 134.702 75.7351 134.705 75.4655 134.766C73.84 135.173 72.8038 137.993 72.7144 139.476C72.7144 139.566 72.7631 140.639 72.8038 141.228C72.4949 140.748 72.1901 140.269 71.865 139.793C70.9222 138.424 69.9226 137.066 68.9351 135.709C68.6303 135.303 68.3336 134.876 68.037 134.458C68.2483 134.376 70.7678 133.397 71.6415 132.507C72.4177 131.694 73.1858 130.475 73.011 129.321C72.9791 129.046 72.8897 128.781 72.7486 128.543C72.6075 128.305 72.4179 128.1 72.1921 127.94C71.9664 127.78 71.7095 127.67 71.4382 127.615C71.1669 127.561 70.8872 127.565 70.6175 127.626C68.9919 128.033 67.9557 130.853 67.8663 132.336C67.8663 132.45 67.9394 133.99 67.9801 134.368C67.3217 133.446 66.6756 132.523 66.0741 131.589C65.2542 130.331 64.5184 129.021 63.8716 127.667C63.9691 127.63 66.6024 126.619 67.4965 125.704C68.2727 124.891 69.0407 123.672 68.866 122.522C68.8346 122.248 68.7456 121.983 68.605 121.745C68.4643 121.507 68.2751 121.301 68.0496 121.141C67.8242 120.981 67.5675 120.871 67.2965 120.817C67.0254 120.763 66.746 120.766 66.4765 120.828C64.851 121.234 63.8147 124.054 63.7253 125.538C63.7253 125.635 63.7781 126.81 63.8187 127.366L63.7293 127.391C63.1111 126.011 62.6187 124.579 62.2583 123.111C62.051 122.299 61.8966 121.523 61.7625 120.763C62.2705 120.624 64.6071 119.97 65.493 119.235C66.3789 118.499 67.2486 117.394 67.2039 116.219C67.2016 115.943 67.1413 115.67 67.0269 115.418C66.9124 115.166 66.7464 114.942 66.5395 114.758C66.3327 114.575 66.0896 114.437 65.826 114.353C65.5624 114.269 65.2842 114.242 65.0094 114.273C63.3636 114.504 62.0104 117.186 61.7584 118.653C61.7584 118.731 61.6934 119.556 61.665 120.157C61.6121 119.812 61.5471 119.458 61.5024 119.125C61.3277 117.877 61.2423 116.727 61.1732 115.707C61.1407 115.126 61.1245 114.598 61.1123 114.106C61.539 113.7 63.2539 112.074 63.7009 111.046C64.1479 110.018 64.4121 108.608 63.8309 107.584C63.7022 107.339 63.5234 107.123 63.306 106.952C63.0886 106.781 62.8375 106.657 62.5691 106.589C62.3008 106.521 62.0211 106.511 61.7484 106.558C61.4757 106.606 61.216 106.71 60.9863 106.864C59.629 107.832 59.6656 110.835 60.1166 112.253C60.1573 112.375 60.9822 114.22 61.0066 114.2L61.031 114.175C61.031 114.647 61.031 115.155 61.0635 115.711C61.1082 116.735 61.1651 117.894 61.3155 119.149C61.4621 120.502 61.6873 121.846 61.99 123.172C62.3218 124.662 62.7869 126.119 63.3799 127.525L63.4042 127.573C63.0873 127.204 62.1648 126.2 62.0835 126.131C60.9619 125.156 58.2189 123.932 56.8006 124.794C56.5677 124.943 56.369 125.14 56.2173 125.371C56.0656 125.602 55.9644 125.863 55.9203 126.136C55.8762 126.409 55.8902 126.688 55.9614 126.956C56.0325 127.223 56.1592 127.472 56.3333 127.687C57.0404 128.626 58.4505 128.939 59.564 128.943C60.8156 128.943 63.2864 127.825 63.4855 127.724C64.122 129.141 64.8524 130.513 65.6718 131.832C66.1432 132.6 66.6431 133.364 67.1551 134.12C66.8707 133.811 66.6146 133.535 66.574 133.498C65.4524 132.527 62.7093 131.3 61.2911 132.162C61.0582 132.311 60.8595 132.507 60.7078 132.739C60.5561 132.97 60.4549 133.231 60.4108 133.504C60.3667 133.777 60.3807 134.056 60.4518 134.323C60.523 134.591 60.6497 134.84 60.8237 135.055C61.5268 135.998 62.941 136.307 64.0544 136.311C65.1679 136.315 67.3055 135.4 67.8663 135.152C68.0654 135.441 68.2727 135.734 68.4637 136.022C69.4227 137.4 70.3858 138.777 71.3083 140.151C71.6293 140.639 71.926 141.126 72.2226 141.614C71.9707 141.338 71.7553 141.11 71.7187 141.077C70.5971 140.102 67.8541 138.879 66.4358 139.74C66.2033 139.89 66.0049 140.087 65.8536 140.318C65.7023 140.55 65.6015 140.811 65.5578 141.084C65.5141 141.357 65.5284 141.636 65.5999 141.903C65.6714 142.17 65.7983 142.419 65.9726 142.634C66.6756 143.573 68.0898 143.886 69.1992 143.89C70.3086 143.894 72.247 143.077 72.9135 142.776C73.2061 143.284 73.4987 143.792 73.7547 144.3C73.9254 144.649 74.1123 144.975 74.2586 145.336C74.4049 145.698 74.5715 146.043 74.7219 146.389C74.9941 147.072 75.2745 147.77 75.5346 148.441C75.7094 148.904 75.8679 149.351 76.0263 149.798C75.7175 149.311 75.0835 148.372 75.0226 148.299C74.137 147.332 73.0174 146.61 71.7716 146.202C71.679 146.089 71.5756 145.986 71.4627 145.893C71.2547 145.711 71.0108 145.575 70.7467 145.493C70.4827 145.412 70.2044 145.387 69.93 145.42C69.6557 145.453 69.3913 145.543 69.154 145.685C68.9168 145.826 68.7121 146.016 68.5531 146.242C67.6346 147.632 68.7481 150.42 69.6787 151.582C69.7315 151.651 70.4102 152.326 70.845 152.745L69.9266 152.147C69.3292 151.741 68.7075 151.334 68.0654 150.891L67.086 150.29C66.7609 150.083 66.3952 149.904 66.0457 149.709C65.2329 149.27 64.3836 148.864 63.5221 148.49C63.8878 147.966 65.1476 146.084 65.3711 144.987C65.5946 143.89 65.5418 142.451 64.7575 141.577C64.5793 141.366 64.3586 141.194 64.1098 141.074C63.861 140.953 63.5896 140.886 63.3133 140.878C63.037 140.869 62.7619 140.918 62.5059 141.023C62.2499 141.127 62.0188 141.284 61.8275 141.484C60.71 142.703 61.3886 145.641 62.1282 146.929C62.177 147.011 62.8109 147.872 63.1726 148.339C62.6524 148.112 62.1323 147.88 61.5999 147.665C60.0557 147.043 58.4749 146.446 56.9022 145.873C56.4186 145.694 55.9391 145.507 55.4596 145.324C55.5937 145.141 57.1542 142.935 57.3899 141.707C57.6012 140.618 57.5646 139.172 56.7762 138.298C56.598 138.086 56.3774 137.915 56.1286 137.794C55.8798 137.674 55.6084 137.607 55.3321 137.598C55.0557 137.589 54.7806 137.639 54.5247 137.743C54.2687 137.848 54.0375 138.005 53.8462 138.204C52.7287 139.423 53.4074 142.362 54.151 143.65C54.2039 143.747 55.1223 144.987 55.3702 145.275C54.3136 144.869 53.2651 144.463 52.2451 144.011C50.8682 143.415 49.5323 142.728 48.2464 141.955C48.3073 141.87 49.9491 139.574 50.1888 138.318C50.3961 137.229 50.3595 135.782 49.5752 134.909C49.397 134.697 49.1764 134.526 48.9276 134.405C48.6788 134.285 48.4074 134.218 48.131 134.209C47.8547 134.2 47.5796 134.25 47.3236 134.354C47.0677 134.458 46.8365 134.616 46.6452 134.815C45.5277 136.034 46.2063 138.972 46.9459 140.261C46.9947 140.346 47.6937 141.293 48.0391 141.736L47.9741 141.805C46.6994 140.994 45.4998 140.07 44.3898 139.046C43.7681 138.489 43.2073 137.924 42.6749 137.359C43.0244 136.953 44.6011 135.136 44.9466 134.027C45.292 132.917 45.3936 131.523 44.7109 130.573C44.5559 130.343 44.3546 130.149 44.1199 130.003C43.8852 129.857 43.6224 129.761 43.3485 129.723C43.0745 129.685 42.7956 129.704 42.5298 129.781C42.264 129.857 42.0171 129.988 41.8053 130.166C40.5617 131.272 40.9153 134.254 41.5086 135.616C41.5411 135.689 41.9556 136.404 42.2645 136.92C42.0288 136.664 41.7809 136.404 41.5574 136.152C40.7446 135.209 40.0172 134.295 39.3995 133.478C39.05 133.011 38.7452 132.584 38.4608 132.182C38.603 131.613 39.1394 129.317 38.9362 128.199C38.733 127.082 38.1804 125.761 37.1319 125.241C36.8899 125.108 36.6226 125.027 36.3473 125.004C36.0721 124.981 35.7951 125.017 35.5344 125.108C35.2738 125.199 35.0352 125.344 34.8343 125.534C34.6335 125.723 34.4747 125.953 34.3685 126.208C33.7712 127.76 35.4576 130.243 36.6117 131.178C36.7133 131.259 38.4201 132.34 38.4283 132.312C38.4291 132.3 38.4291 132.287 38.4283 132.275C38.6924 132.682 38.9809 133.088 39.302 133.543C39.9034 134.356 40.5943 135.307 41.4111 136.27C42.281 137.318 43.2104 138.315 44.1948 139.257C45.2941 140.308 46.484 141.26 47.7506 142.102L47.7993 142.13C47.332 141.996 46.0072 141.667 45.9015 141.654C44.4264 141.459 41.468 141.951 40.7527 143.455C40.6413 143.709 40.5847 143.983 40.5866 144.261C40.5886 144.538 40.6491 144.812 40.7642 145.064C40.8793 145.317 41.0463 145.542 41.2544 145.725C41.4625 145.909 41.707 146.046 41.9719 146.129C43.0813 146.527 44.4305 146.011 45.357 145.397Z" fill="#9C9C9C"/>
<path d="M121.386 42.3073C122.255 43.7621 125.388 45.8956 125.393 45.8956C125.397 45.8956 126.173 43.4045 126.205 43.2379C126.539 41.3401 126.067 37.4714 124.173 36.4636C123.852 36.3048 123.5 36.2156 123.141 36.2017C122.783 36.1878 122.425 36.2496 122.092 36.383C121.759 36.5164 121.458 36.7184 121.208 36.976C120.958 37.2335 120.765 37.5408 120.642 37.8778C120.053 39.292 120.646 41.0719 121.386 42.3073Z" fill="#9C9C9C"/>
<path d="M152.112 65.2839C152.112 65.3205 154.144 63.634 154.254 63.5121C155.583 62.1101 157.322 58.6355 156.286 56.7296C156.105 56.4196 155.861 56.1511 155.569 55.9417C155.278 55.7323 154.946 55.5866 154.594 55.5142C154.242 55.4417 153.88 55.4441 153.529 55.5212C153.179 55.5983 152.848 55.7483 152.559 55.9616C151.304 56.8272 150.82 58.6396 150.751 60.0782C150.674 61.7687 152.112 65.2798 152.112 65.2839Z" fill="#9C9C9C"/>
<path d="M116.067 52.0075C117.242 53.1332 120.566 54.3035 120.83 54.393C120.159 56.2931 119.616 58.2358 119.204 60.2082C118.956 61.3542 118.741 62.5205 118.542 63.6909C118.542 63.1423 118.542 62.6506 118.542 62.5815C118.363 60.6634 116.888 57.0547 114.779 56.5874C114.426 56.5188 114.063 56.5252 113.714 56.6062C113.364 56.6873 113.035 56.8411 112.749 57.0578C112.462 57.2744 112.225 57.5489 112.051 57.8635C111.878 58.178 111.773 58.5256 111.743 58.8834C111.564 60.3992 112.613 61.9597 113.653 62.9472C114.694 63.9347 117.522 65.0157 118.27 65.2839C118.197 65.7309 118.119 66.182 118.05 66.629C117.713 68.7869 117.388 70.9407 117.002 73.0457C116.868 73.7853 116.705 74.5127 116.547 75.2401C116.547 74.7525 116.547 74.342 116.547 74.2811C116.368 72.3589 114.893 68.7544 112.784 68.283C112.431 68.215 112.068 68.222 111.719 68.3036C111.369 68.3852 111.041 68.5395 110.755 68.7565C110.469 68.9735 110.231 69.2483 110.059 69.563C109.886 69.8777 109.781 70.2253 109.752 70.583C109.573 72.0948 110.618 73.6553 111.658 74.6468C112.698 75.6384 115.254 76.6056 116.128 76.9307C115.945 77.6703 115.762 78.4099 115.551 79.117C115.393 79.5965 115.279 80.0679 115.096 80.5434L114.584 81.9454C114.23 82.8232 113.869 83.7334 113.499 84.5868C113.247 85.1761 112.995 85.7369 112.743 86.3017C112.885 85.5662 113.149 84.1195 113.149 83.9976C113.263 82.0714 112.337 78.2839 110.337 77.4955C109.999 77.3743 109.639 77.3258 109.281 77.353C108.923 77.3803 108.574 77.4828 108.258 77.6538C107.942 77.8249 107.666 78.0606 107.447 78.3456C107.228 78.6306 107.072 78.9585 106.989 79.308C106.582 80.775 107.395 82.4777 108.257 83.6197C109.224 84.8794 112.202 86.4887 112.576 86.6878C112.17 87.6184 111.739 88.5246 111.333 89.3699C110.154 91.8366 109.065 93.9091 108.204 95.4981L109.378 96.3352C110.232 94.7097 111.321 92.5112 112.491 89.9104C112.922 88.9635 113.365 87.9435 113.808 86.891C114.865 87.1522 115.937 87.3489 117.018 87.4802C117.221 89.1058 118.713 91.8854 118.908 92.243C118.042 92.7916 117.197 93.3158 116.388 93.7954C114.092 95.177 112.072 96.2905 110.492 97.1317L111.772 98.0461C113.255 97.2089 115.051 96.1524 117.055 94.8885C117.936 94.3358 118.867 93.7263 119.814 93.0923C120.094 93.4012 122.411 95.8801 123.878 96.4978C125.207 97.0545 127.052 97.3999 128.372 96.6319C128.689 96.4631 128.967 96.2295 129.187 95.9461C129.407 95.6627 129.566 95.3361 129.651 94.9875C129.737 94.6388 129.748 94.2761 129.683 93.9229C129.619 93.5698 129.481 93.2341 129.278 92.9379C128.011 91.1864 124.117 91.2636 122.281 91.861C122.175 91.8976 121.041 92.4096 120.334 92.7469C120.72 92.4868 121.098 92.2349 121.492 91.9626C122.277 91.4262 123.045 90.8694 123.87 90.2761L125.048 89.3618C125.454 89.0611 125.832 88.6994 126.231 88.3661C127.137 87.5778 128.019 86.7406 128.884 85.8629C129.356 86.5456 131.062 88.9554 132.294 89.7113C133.525 90.4671 135.297 91.0848 136.715 90.524C137.054 90.4051 137.364 90.2161 137.625 89.9693C137.886 89.7226 138.092 89.4237 138.229 89.0921C138.367 88.7604 138.433 88.4035 138.424 88.0446C138.414 87.6856 138.329 87.3327 138.174 87.0088C137.187 85.0867 133.322 84.5706 131.42 84.8835C131.302 84.9038 129.961 85.2899 129.23 85.5012C129.746 84.977 130.266 84.4527 130.77 83.9001C132.233 82.3152 133.663 80.649 135.094 79.0235C135.533 78.5196 135.98 78.0238 136.419 77.528C136.585 77.7719 138.548 80.6775 139.93 81.5268C141.149 82.2786 142.933 82.9004 144.355 82.3396C144.694 82.2202 145.003 82.0309 145.263 81.784C145.524 81.5371 145.729 81.2381 145.867 80.9065C146.004 80.5749 146.07 80.2181 146.06 79.8594C146.05 79.5007 145.965 79.148 145.81 78.8244C144.822 76.9022 140.958 76.3861 139.056 76.699C138.914 76.7194 136.983 77.268 136.5 77.4305C137.475 76.3333 138.454 75.2483 139.466 74.2161C140.823 72.8182 142.269 71.5096 143.794 70.2986C143.872 70.4124 145.907 73.4561 147.322 74.3258C148.541 75.0776 150.325 75.6953 151.747 75.1385C152.086 75.0192 152.395 74.8299 152.655 74.583C152.916 74.3361 153.121 74.0371 153.259 73.7055C153.396 73.3739 153.462 73.0171 153.452 72.6584C153.442 72.2997 153.357 71.947 153.202 71.6234C152.214 69.7012 148.35 69.1851 146.448 69.5021C146.322 69.5021 144.855 69.9369 144.16 70.1482L144.103 70.0385C145.673 68.8616 147.344 67.8266 149.098 66.946C150.057 66.4502 150.999 66.0316 151.942 65.6415C152.263 66.247 153.763 68.9982 154.949 69.9207C156.136 70.8431 157.794 71.6153 159.257 71.217C159.606 71.1356 159.935 70.9815 160.22 70.7648C160.506 70.5482 160.743 70.2738 160.916 69.9595C161.089 69.6452 161.194 69.298 161.224 68.9405C161.254 68.5831 161.208 68.2233 161.09 67.8847C160.318 65.8528 156.538 64.9263 154.612 65.0401C154.506 65.0401 153.446 65.2229 152.678 65.357C153.084 65.1904 153.531 65.0075 153.937 64.8531C155.465 64.272 156.896 63.8331 158.172 63.4552C158.895 63.2439 159.558 63.0488 160.175 62.9106C160.801 63.3414 163.341 65.0441 164.796 65.3083C166.251 65.5724 168.092 65.5074 169.213 64.4752C169.486 64.2418 169.706 63.9536 169.86 63.6294C170.014 63.3051 170.098 62.9521 170.107 62.5933C170.115 62.2345 170.048 61.8779 169.909 61.5468C169.771 61.2157 169.564 60.9174 169.303 60.6715C167.677 59.237 163.902 60.1473 162.24 61.1226C162.093 61.2079 160.001 62.7887 160.033 62.8131L160.07 62.8375C159.472 62.9757 158.83 63.1341 158.131 63.317C156.851 63.6706 155.4 64.081 153.856 64.6296C152.185 65.2119 150.548 65.8904 148.955 66.6615C147.167 67.5117 145.458 68.518 143.847 69.6687L143.794 69.7134C144.168 69.2054 145.176 67.7506 145.241 67.6287C146.151 65.926 146.911 62.106 145.412 60.5496C145.155 60.2991 144.848 60.1053 144.511 59.9808C144.175 59.8564 143.816 59.8039 143.458 59.8269C143.1 59.8499 142.75 59.9478 142.432 60.1143C142.114 60.2807 141.835 60.5121 141.612 60.7934C140.629 61.9597 140.641 63.8372 140.958 65.2432C141.315 66.8281 143.441 69.6362 143.611 69.8597C142.003 71.0733 140.477 72.3929 139.044 73.8097C138.203 74.6224 137.386 75.484 136.573 76.3496C136.886 75.8985 137.158 75.4921 137.191 75.4311C138.101 73.7325 138.861 69.9085 137.361 68.3561C137.105 68.1045 136.799 67.9098 136.463 67.7846C136.126 67.6594 135.767 67.6066 135.409 67.6296C135.051 67.6526 134.702 67.7509 134.384 67.9181C134.066 68.0853 133.787 68.3177 133.566 68.5999C132.578 69.7622 132.59 71.6396 132.907 73.0457C133.224 74.4518 134.996 76.9063 135.472 77.5402L134.545 78.544C133.074 80.1695 131.615 81.7747 130.132 83.3149C129.612 83.8594 129.075 84.3755 128.543 84.8957C128.819 84.4893 129.051 84.1561 129.079 84.0829C129.99 82.3843 130.75 78.5603 129.25 77.0079C128.994 76.7566 128.687 76.562 128.351 76.4368C128.014 76.3116 127.655 76.2586 127.297 76.2812C126.938 76.3039 126.589 76.4016 126.271 76.5681C125.953 76.7346 125.673 76.9661 125.45 77.2476C124.467 78.414 124.479 80.2914 124.796 81.6975C125.113 83.1036 126.71 85.3183 127.275 86.0782C126.714 86.5903 126.153 87.1064 125.584 87.5818C125.178 87.8947 124.833 88.2239 124.418 88.5206L123.219 89.4065C122.439 89.947 121.635 90.5037 120.858 91.0117C120.318 91.3652 119.802 91.6944 119.278 92.0276C119.806 91.4912 120.814 90.4224 120.903 90.3249C121.87 88.929 122.463 87.309 122.626 85.619C122.741 85.4688 122.842 85.3083 122.927 85.1395C123.097 84.8234 123.199 84.4751 123.226 84.117C123.253 83.759 123.204 83.3993 123.083 83.0613C122.962 82.7232 122.771 82.4145 122.523 82.155C122.275 81.8956 121.975 81.6912 121.643 81.5553C119.611 80.7953 116.413 83.006 115.214 84.5177C115.141 84.6072 114.482 85.6597 114.076 86.3302C114.255 85.8994 114.433 85.4849 114.612 85.0379C114.97 84.1601 115.303 83.2742 115.661 82.3192C115.819 81.8519 115.982 81.3805 116.14 80.905C116.299 80.4296 116.429 79.9216 116.579 79.4258C116.9 78.2636 117.168 77.077 117.412 75.87C118.18 76.1829 120.931 77.2517 122.378 77.2029C123.825 77.1542 125.629 76.6909 126.519 75.4433C126.736 75.157 126.889 74.8282 126.97 74.4785C127.051 74.1288 127.057 73.766 126.989 73.4137C126.92 73.0614 126.778 72.7275 126.572 72.4338C126.366 72.14 126.1 71.8929 125.792 71.7087C123.91 70.6481 120.403 72.3508 118.989 73.6593C118.9 73.7447 117.989 74.7972 117.502 75.3864C117.64 74.6631 117.786 73.9397 117.908 73.2001C118.249 71.0666 118.53 68.9006 118.822 66.7387C118.908 66.0763 119.005 65.418 119.099 64.7597C119.371 64.8734 122.614 66.2145 124.235 66.1576C125.674 66.1088 127.486 65.6456 128.372 64.398C128.589 64.1119 128.743 63.7833 128.824 63.4338C128.905 63.0843 128.912 62.7216 128.844 62.3693C128.775 62.0171 128.634 61.6831 128.428 61.3892C128.222 61.0952 127.957 60.8479 127.649 60.6634C125.763 59.6068 122.256 61.3054 120.842 62.618C120.736 62.7156 119.428 64.2436 119.115 64.6499C119.322 63.1992 119.521 61.7525 119.814 60.3342C120.178 58.4179 120.666 56.5271 121.273 54.6734C121.399 54.7262 124.776 56.1444 126.438 56.0875C127.876 56.0347 129.689 55.5755 130.575 54.3279C130.791 54.0415 130.945 53.7127 131.027 53.3628C131.108 53.013 131.115 52.65 131.046 52.2974C130.978 51.9448 130.836 51.6105 130.631 51.3162C130.425 51.0219 130.159 50.7742 129.851 50.5893C127.966 49.5327 124.463 51.2313 123.045 52.5439C122.951 52.6293 121.956 53.7874 121.492 54.3482L121.387 54.2873C122.039 52.4408 122.855 50.6565 123.825 48.9556C124.353 48.0128 124.906 47.1391 125.45 46.302C126.052 46.6311 128.819 48.0982 130.327 48.216C131.766 48.3217 133.623 48.0616 134.635 46.9197C134.881 46.6588 135.07 46.3489 135.188 46.0103C135.307 45.6716 135.353 45.3118 135.324 44.9541C135.294 44.5964 135.19 44.249 135.017 43.9344C134.845 43.6198 134.607 43.3451 134.322 43.1282C132.566 41.8684 128.896 43.1729 127.344 44.3229C127.263 44.3839 126.474 45.1113 125.91 45.6518C126.166 45.2779 126.426 44.8878 126.682 44.5342C127.633 43.2094 128.588 42.0513 129.437 41.0312C129.929 40.4583 130.384 39.9462 130.811 39.4748C131.57 39.4748 134.63 39.5073 135.988 38.9262C137.345 38.3451 138.832 37.2722 139.214 35.793C139.313 35.4473 139.338 35.0847 139.287 34.7288C139.236 34.3728 139.111 34.0317 138.919 33.7275C138.727 33.4234 138.473 33.1631 138.174 32.9638C137.875 32.7644 137.537 32.6304 137.183 32.5705C135.045 32.2616 132.387 35.1144 131.538 36.8455C131.465 36.9959 130.591 39.4708 130.628 39.4708H130.676C130.27 39.9178 129.803 40.4014 129.323 40.9418C128.449 41.9415 127.466 43.0835 126.479 44.392C125.402 45.7947 124.407 47.2588 123.5 48.7768C122.478 50.4723 121.609 52.2552 120.903 54.1044L120.879 54.1735C120.915 53.5396 120.948 51.7718 120.936 51.6336C120.757 49.7115 119.282 46.1069 117.172 45.6396C116.82 45.5716 116.458 45.5785 116.108 45.6598C115.759 45.7412 115.431 45.8951 115.145 46.1117C114.859 46.3283 114.622 46.6026 114.449 46.9168C114.276 47.2311 114.171 47.5782 114.141 47.9356C113.982 49.4514 115.027 51.0119 116.067 52.0075Z" fill="#9C9C9C"/>
<path d="M140.647 123.542V122.181C140.647 115.171 149.522 114.866 149.522 109.876C149.522 107.71 147.758 106.296 145.133 106.296C142.26 106.296 140.443 107.86 140.443 110.079V110.636C140.443 111.188 140.143 111.448 139.586 111.448L134.193 111.245C133.689 111.245 133.336 110.993 133.336 110.644V110.087C133.336 103.991 138.176 99.8017 145.288 99.8017C152.245 99.8017 156.731 103.735 156.731 109.632C156.731 118.003 147.705 118.056 147.705 122.636V123.542C147.719 123.658 147.706 123.776 147.668 123.886C147.63 123.996 147.567 124.096 147.485 124.179C147.402 124.261 147.302 124.324 147.192 124.362C147.081 124.401 146.964 124.413 146.848 124.4H141.504C141.388 124.413 141.271 124.401 141.16 124.362C141.05 124.324 140.95 124.261 140.867 124.179C140.785 124.096 140.722 123.996 140.684 123.886C140.646 123.776 140.633 123.658 140.647 123.542V123.542ZM140.192 131.67C140.192 129.451 142.158 127.634 144.528 127.634C146.799 127.634 148.815 129.451 148.815 131.67C148.815 133.889 146.783 135.705 144.479 135.705C142.175 135.705 140.192 133.881 140.192 131.662V131.67Z" fill="#263238"/>
<path d="M34.0928 65.7959V64.6134C34.0928 58.5177 41.814 58.2617 41.814 53.9256C41.814 52.04 40.2819 50.8168 38.0062 50.8168C35.507 50.8168 33.9424 52.1741 33.9424 54.1004V54.584C33.9424 55.0635 33.6823 55.2829 33.1987 55.2829L28.5132 55.1082C28.0743 55.1082 27.7695 54.8888 27.7695 54.584V54.1004C27.7695 48.8175 31.9715 45.1601 38.1484 45.1601C44.1913 45.1601 48.0925 48.5777 48.0925 53.694C48.0925 60.9641 40.2494 61.0088 40.2494 64.9954V65.7837C40.2611 65.8842 40.2499 65.9861 40.2167 66.0816C40.1835 66.1772 40.1291 66.264 40.0575 66.3355C39.986 66.4071 39.8992 66.4615 39.8036 66.4947C39.7081 66.528 39.6062 66.5391 39.5057 66.5274H34.8364C34.7371 66.5388 34.6364 66.5278 34.5419 66.4953C34.4473 66.4627 34.3612 66.4094 34.2899 66.3393C34.2186 66.2692 34.1639 66.184 34.1298 66.0899C34.0957 65.9959 34.083 65.8955 34.0928 65.7959V65.7959ZM33.6864 72.8466C33.6864 70.9204 35.3932 69.3436 37.4495 69.3436C39.4204 69.3436 41.1759 70.9204 41.1759 72.8466C41.1759 74.7728 39.4204 76.3496 37.4088 76.3496C36.4532 76.3737 35.5269 76.0189 34.8318 75.3627C34.1368 74.7065 33.7294 73.802 33.6986 72.8466H33.6864Z" fill="#FE0002"/>
<path d="M132.177 19.1641V18.5667C132.177 15.4904 136.07 15.3563 136.07 13.166C136.07 12.215 135.294 11.5933 134.144 11.5933C132.884 11.5933 132.088 12.2801 132.088 13.2554V13.4992C132.088 13.743 131.954 13.8527 131.71 13.8527L129.345 13.7633C129.121 13.7633 128.967 13.6536 128.967 13.4992V13.2554C128.967 10.5773 131.092 8.74051 134.213 8.74051C137.265 8.74051 139.236 10.4676 139.236 13.0562C139.236 16.7136 135.274 16.7502 135.274 18.7455V19.1519C135.28 19.2028 135.274 19.2544 135.257 19.3028C135.24 19.3511 135.212 19.395 135.176 19.431C135.14 19.4671 135.095 19.4943 135.047 19.5107C134.998 19.5272 134.947 19.5323 134.896 19.5258H132.551C132.502 19.5321 132.451 19.5272 132.404 19.5114C132.356 19.4957 132.313 19.4694 132.277 19.4347C132.241 19.4 132.214 19.3576 132.196 19.3108C132.179 19.264 132.173 19.2138 132.177 19.1641V19.1641ZM131.978 22.728C131.952 22.3481 132.041 21.969 132.233 21.6402C132.425 21.3114 132.712 21.048 133.056 20.8844C133.4 20.7207 133.785 20.6643 134.161 20.7225C134.538 20.7807 134.888 20.9508 135.166 21.2107C135.445 21.4706 135.639 21.8083 135.723 22.1798C135.806 22.5513 135.777 22.9395 135.637 23.2938C135.497 23.6482 135.254 23.9523 134.94 24.1667C134.625 24.381 134.253 24.4957 133.872 24.4958C133.631 24.5045 133.391 24.4656 133.166 24.3814C132.94 24.2972 132.734 24.1693 132.558 24.0051C132.382 23.8408 132.24 23.6435 132.141 23.4243C132.041 23.2052 131.986 22.9686 131.978 22.728Z" fill="#FE0002"/>
<path d="M18.0537 101.35V100.598C18.0537 96.7213 22.9627 96.5547 22.9627 93.7913C22.9627 92.5925 21.9874 91.8123 20.5245 91.8123C18.9355 91.8123 17.9318 92.6779 17.9318 93.9051V94.2099C17.9318 94.5187 17.7652 94.6569 17.4563 94.6569L14.4735 94.5472C14.1931 94.5472 13.998 94.405 13.998 94.2099V93.9051C13.998 90.5322 16.6761 88.2158 20.6098 88.2158C24.4582 88.2158 26.9371 90.3899 26.9371 93.6532C26.9371 98.2818 21.9468 98.3102 21.9468 100.85V101.35C21.9547 101.414 21.9478 101.48 21.9267 101.541C21.9056 101.602 21.8708 101.658 21.825 101.704C21.7792 101.749 21.7235 101.784 21.6622 101.805C21.6009 101.826 21.5357 101.833 21.4713 101.825H18.521C18.4573 101.832 18.393 101.824 18.3327 101.802C18.2725 101.781 18.2179 101.746 18.173 101.7C18.1281 101.654 18.0941 101.599 18.0735 101.539C18.0528 101.478 18.046 101.414 18.0537 101.35V101.35ZM17.8017 105.84C17.7699 105.362 17.883 104.884 18.1262 104.471C18.3694 104.057 18.7315 103.726 19.1653 103.521C19.5992 103.316 20.0847 103.247 20.5586 103.322C21.0326 103.397 21.473 103.612 21.8226 103.941C22.1722 104.27 22.4148 104.696 22.5187 105.164C22.6227 105.633 22.5832 106.122 22.4054 106.567C22.2276 107.013 21.9198 107.395 21.522 107.663C21.1242 107.931 20.6548 108.074 20.175 108.071C19.5634 108.091 18.969 107.867 18.5225 107.449C18.0759 107.031 17.8138 106.452 17.7936 105.84H17.8017Z" stroke="#263238" stroke-miterlimit="10"/>
<path d="M55.4409 31.201V30.6849C55.4409 28.0191 58.8179 27.9012 58.8179 26.0034C58.8179 25.1907 58.1474 24.6421 57.1477 24.6421C56.0546 24.6421 55.3637 25.2354 55.3637 26.0807V26.292C55.3637 26.5033 55.2499 26.5968 55.0386 26.5968L53.0067 26.5195C52.8157 26.5195 52.6816 26.4261 52.6816 26.292V26.0807C52.6816 23.7602 54.5225 22.1672 57.2249 22.1672C59.9274 22.1672 61.5366 23.6627 61.5366 25.9059C61.5366 29.0919 58.1027 29.1122 58.1027 30.8556V31.201C58.1079 31.245 58.1031 31.2895 58.0886 31.3314C58.0742 31.3732 58.0504 31.4112 58.0191 31.4425C57.9878 31.4738 57.9498 31.4976 57.908 31.512C57.8661 31.5265 57.8216 31.5313 57.7776 31.5261H55.7457C55.7034 31.5282 55.6611 31.521 55.6218 31.5051C55.5826 31.4891 55.5472 31.4649 55.5182 31.434C55.4892 31.4031 55.4673 31.3662 55.454 31.326C55.4406 31.2858 55.4362 31.2431 55.4409 31.201V31.201ZM55.2703 34.2895C55.2524 33.9648 55.3323 33.6422 55.4997 33.3634C55.6671 33.0846 55.9143 32.8624 56.2093 32.7255C56.5043 32.5887 56.8335 32.5434 57.1545 32.5957C57.4755 32.648 57.7734 32.7953 58.0098 33.0186C58.2461 33.242 58.4101 33.5311 58.4804 33.8486C58.5507 34.1661 58.5242 34.4974 58.4042 34.7997C58.2842 35.102 58.0764 35.3613 57.8075 35.5442C57.5386 35.7271 57.221 35.8251 56.8958 35.8256C56.4761 35.8399 56.0678 35.687 55.7608 35.4005C55.4537 35.114 55.2729 34.7173 55.2581 34.2976L55.2703 34.2895Z" fill="#263238"/>
<path d="M115.584 142.61V142.093C115.584 139.428 118.961 139.314 118.961 137.412C118.961 136.599 118.29 136.051 117.29 136.051C116.197 136.051 115.506 136.644 115.506 137.489V137.7C115.506 137.912 115.393 138.009 115.181 138.009L113.149 137.932C112.958 137.932 112.824 137.835 112.824 137.7V137.489C112.824 135.169 114.665 133.576 117.368 133.576C120.07 133.576 121.724 135.071 121.724 137.318C121.724 140.5 118.29 140.521 118.29 142.264V142.61C118.295 142.654 118.29 142.698 118.276 142.74C118.261 142.782 118.238 142.82 118.206 142.852C118.175 142.884 118.137 142.908 118.095 142.923C118.054 142.938 118.009 142.943 117.965 142.939H115.933C115.887 142.947 115.84 142.945 115.795 142.932C115.75 142.919 115.708 142.895 115.674 142.863C115.64 142.831 115.614 142.791 115.598 142.747C115.583 142.703 115.578 142.656 115.584 142.61V142.61ZM115.413 145.698C115.395 145.373 115.475 145.051 115.642 144.772C115.81 144.493 116.057 144.271 116.352 144.134C116.647 143.997 116.976 143.952 117.297 144.004C117.618 144.056 117.916 144.204 118.152 144.427C118.389 144.651 118.553 144.94 118.623 145.257C118.693 145.575 118.667 145.906 118.547 146.208C118.427 146.51 118.219 146.77 117.95 146.953C117.681 147.136 117.364 147.234 117.038 147.234C116.62 147.244 116.215 147.088 115.911 146.8C115.607 146.512 115.43 146.116 115.417 145.698H115.413Z" stroke="#263238" stroke-miterlimit="10"/>
<path d="M99.6736 151.859C99.6451 151.773 99.6167 151.688 99.5842 151.603C99.5517 151.517 99.5273 151.428 99.4948 151.343C99.4623 151.257 99.4379 151.172 99.4054 151.087C99.3729 151.001 99.3485 150.912 99.316 150.826C99.2835 150.741 99.2591 150.656 99.2266 150.57C99.194 150.485 99.1697 150.396 99.1372 150.31L99.0477 150.054C99.0193 149.965 98.9868 149.88 98.9583 149.794L98.8689 149.538C98.8405 149.449 98.808 149.363 98.7795 149.278L98.6901 149.022C98.6617 148.933 98.6292 148.847 98.6007 148.762L98.5154 148.49C98.4869 148.4 98.4544 148.315 98.426 148.23L98.3325 147.974C98.3041 147.884 98.2756 147.799 98.2431 147.714C98.2106 147.628 98.1862 147.543 98.1537 147.458C98.1212 147.372 98.0968 147.283 98.0643 147.198C98.0318 147.112 98.0074 147.027 97.9749 146.941C96.6501 142.91 92.5538 139.952 88.0471 139.952C83.6785 139.952 79.8789 142.496 78.294 146.08C78.2534 146.161 78.2168 146.247 78.1802 146.328L78.0705 146.58C78.0299 146.661 77.9933 146.742 77.9567 146.828C77.9202 146.913 77.8795 146.994 77.843 147.076L77.7332 147.323C77.6926 147.409 77.656 147.49 77.6194 147.575C77.5829 147.661 77.5422 147.738 77.5057 147.823C77.4691 147.909 77.4284 147.986 77.3919 148.071L77.2821 148.319C77.2415 148.4 77.2049 148.486 77.1684 148.567C77.1318 148.648 77.0912 148.734 77.0546 148.815L76.9449 149.067C76.9042 149.148 76.8676 149.229 76.8311 149.315C76.7945 149.4 76.7539 149.481 76.7173 149.563L76.6076 149.811C76.5669 149.896 76.5303 149.977 76.4938 150.062C76.4572 150.148 76.4166 150.225 76.38 150.31L76.2703 150.558C76.2296 150.64 76.1931 150.725 76.1565 150.806C76.1199 150.887 76.0793 150.973 76.0427 151.058C75.3455 152.543 74.9873 154.164 74.9942 155.805C74.9942 162.347 80.6429 167.695 87.6285 167.695C94.4638 167.695 100.409 162.347 100.409 155.805C100.408 154.557 100.189 153.32 99.763 152.147C99.7345 152.029 99.7061 151.944 99.6736 151.859Z" fill="#263238"/>
<path d="M90.0061 61.8501C69.0492 61.8501 54.7812 74.1836 54.7812 92.1699V93.7954C54.785 94.064 54.8581 94.3271 54.9934 94.5592C55.1286 94.7913 55.3215 94.9845 55.5534 95.1202C55.641 95.2046 55.7363 95.2808 55.8378 95.3478C55.9259 95.4334 56.0226 95.5097 56.1264 95.5754C56.2144 95.661 56.3111 95.7372 56.4149 95.8029C56.5021 95.8895 56.5989 95.9658 56.7034 96.0305C56.79 96.1161 56.8854 96.1923 56.9879 96.2581C57.0758 96.345 57.1725 96.4226 57.2764 96.4897C57.3655 96.5741 57.4621 96.6503 57.5649 96.7173C57.6532 96.8026 57.7499 96.8789 57.8535 96.9449C57.9403 97.0302 58.0356 97.1064 58.1379 97.1724C58.2334 97.2645 58.3383 97.3462 58.4508 97.4163C58.5337 97.4917 58.622 97.561 58.715 97.6235C58.8041 97.7079 58.9007 97.7841 59.0035 97.8511C59.0912 97.9355 59.1864 98.0116 59.288 98.0787C59.3771 98.1631 59.4737 98.2392 59.5765 98.3062C59.6648 98.3916 59.7615 98.4678 59.865 98.5338C59.9519 98.6191 60.0472 98.6954 60.1495 98.7614C60.2378 98.8467 60.3345 98.923 60.438 98.9889C60.5249 99.0743 60.6202 99.1505 60.7225 99.2165C60.8116 99.3009 60.9082 99.3771 61.011 99.4441C61.0979 99.5294 61.1932 99.6057 61.2955 99.6717C61.765 100.085 62.3777 100.298 63.0023 100.265L76.0714 100.753C77.4165 100.753 78.148 100.143 78.148 98.7979V97.4569C78.148 92.0805 82.545 88.2971 89.5266 88.2971C95.8782 88.2971 100.153 91.7148 100.153 96.9692C100.153 97.568 100.096 98.1654 99.9827 98.7532C93.4237 107.352 76.3518 111.144 76.3518 127.834V131.849C76.3518 133.474 77.2418 134.372 78.8795 134.372H94.6144C96.2399 134.372 97.1421 133.482 97.1421 131.849V129.171C97.1421 115.646 123.748 115.496 123.748 90.8248C123.748 73.44 110.516 61.8501 90.0061 61.8501Z" fill="#263238"/>
<path d="M76.3313 131.857V127.842C76.3313 107.182 102.49 106.304 102.49 91.5766C102.49 85.1843 97.2882 81.0108 89.5589 81.0108C81.0859 81.0108 75.7421 85.6191 75.7421 92.1577V93.7832C75.7421 95.4087 74.848 96.1646 73.2144 96.1646L57.3088 95.5672C55.8255 95.5672 54.7852 94.8236 54.7852 93.7832V92.1577C54.7852 74.1714 69.0531 61.8379 90.01 61.8379C110.52 61.8379 123.739 73.4278 123.739 90.8207C123.739 115.492 97.1338 115.642 97.1338 129.167V131.845C97.1338 133.47 96.2398 134.368 94.6061 134.368H78.859C77.2213 134.38 76.3313 133.49 76.3313 131.857ZM74.9943 155.805C74.9943 149.266 80.7893 143.914 87.7749 143.914C94.4639 143.914 100.409 149.266 100.409 155.805C100.409 162.343 94.4517 167.675 87.6286 167.675C80.6349 167.675 74.9943 162.327 74.9943 155.805Z" fill="#FE0002" stroke="#FE0002" stroke-miterlimit="10"/>
<path d="M86.9794 181C99.2359 181 109.172 178.779 109.172 176.038C109.172 173.298 99.2359 171.076 86.9794 171.076C74.7229 171.076 64.7871 173.298 64.7871 176.038C64.7871 178.779 74.7229 181 86.9794 181Z" fill="#263238"/>
<path d="M70.0171 63.4958L69.1678 65.3489C69.1678 65.3489 64.2344 65.8813 64.2344 66.2511C64.2344 66.6209 64.2872 69.1689 64.5554 69.2745C64.7593 69.3539 64.9855 69.3539 65.1894 69.2745L72.4554 67.4174L73.1462 64.1298L70.0171 63.4958Z" fill="white" stroke="#263238" stroke-linecap="round" stroke-linejoin="round"/>
<path d="M68.6349 66.8078C67.7327 67.547 66.7594 68.1949 65.7293 68.7422C64.5549 69.2705 64.5102 70.071 64.8841 70.071C65.2579 70.071 68.574 68.6812 68.574 68.6812C68.574 68.6812 71.5852 67.8929 72.0201 67.6531C72.4549 67.4133 72.5037 66.0804 72.5037 66.0804" fill="white"/>
<path d="M68.6349 66.8078C67.7327 67.547 66.7594 68.1949 65.7293 68.7422C64.5549 69.2705 64.5102 70.071 64.8841 70.071C65.2579 70.071 68.574 68.6812 68.574 68.6812C68.574 68.6812 71.5852 67.8929 72.0201 67.6531C72.4549 67.4133 72.5037 66.0804 72.5037 66.0804" stroke="#263238" stroke-linecap="round" stroke-linejoin="round"/>
<path d="M74.3575 27.889L71.3259 51.1257L69.2168 63.7072L73.8983 64.8125L77.3891 49.9309L79.043 40.5639L74.3575 27.889Z" fill="#7D7D7D" stroke="#263238" stroke-linecap="round" stroke-linejoin="round"/>
<path d="M98.8215 11.0649L96.9725 10.7723L93.185 9.33783L93.0469 13.8364L98.919 14.3769L98.8215 11.0649Z" fill="white" stroke="#263238" stroke-linecap="round" stroke-linejoin="round"/>
<path d="M77.2065 93.4662C75.8284 95.073 74.5409 96.7553 73.35 98.5053C71.7854 100.895 72.3381 103.463 74.2684 104.109C76.1987 104.755 78.6735 103.004 79.3197 101.626C79.9658 100.249 79.7789 99.5172 80.7867 98.1396C81.7945 96.762 82.6235 95.3843 82.2578 93.5475C81.892 91.7107 78.1981 92.1821 77.2065 93.4662Z" fill="#7D7D7D" stroke="#263238" stroke-linecap="round" stroke-linejoin="round"/>
<path d="M79.1328 101.972C79.0028 101.695 78.8524 101.403 78.6736 101.09C77.1985 98.4931 74.6098 98.7004 72.9843 99.184C71.9155 101.366 72.5251 103.536 74.2766 104.121C76.0281 104.707 78.2876 103.276 79.1328 101.972Z" fill="white" stroke="#263238" stroke-linecap="round" stroke-linejoin="round"/>
<path d="M78.6726 101.09C78.124 101.903 77.3884 104.121 74.5397 103.203C73.7453 102.999 73.0348 102.551 72.5078 101.923C72.5694 102.419 72.7683 102.887 73.0821 103.276C73.3959 103.664 73.8121 103.957 74.2837 104.121C76.2099 104.764 78.6888 103.016 79.335 101.638C79.9811 100.261 79.7942 99.5294 80.802 98.1518C81.8098 96.7741 82.6388 95.3965 82.2731 93.5597C82.2731 95.7623 81.4603 96.128 80.4362 97.3228C79.4122 98.5175 79.2252 100.261 78.6726 101.09Z" fill="white" stroke="#263238" stroke-linecap="round" stroke-linejoin="round"/>
<path d="M104.307 93.4662C105.685 95.073 106.973 96.7553 108.164 98.5053C109.728 100.895 109.176 103.463 107.245 104.109C105.315 104.755 102.84 103.004 102.194 101.626C101.548 100.249 101.735 99.5172 100.727 98.1396C99.7193 96.762 98.8903 95.3843 99.256 93.5475C99.6217 91.7107 103.299 92.1821 104.307 93.4662Z" fill="#7D7D7D" stroke="#263238" stroke-linecap="round" stroke-linejoin="round"/>
<path d="M102.385 101.972C102.511 101.695 102.661 101.403 102.84 101.09C104.315 98.4931 106.904 98.7004 108.529 99.184C109.598 101.366 108.988 103.536 107.237 104.121C105.485 104.707 103.226 103.276 102.385 101.972Z" fill="white" stroke="#263238" stroke-linecap="round" stroke-linejoin="round"/>
<path d="M102.841 101.09C103.389 101.903 104.125 104.121 106.974 103.203C107.768 102.999 108.479 102.551 109.006 101.923C108.944 102.419 108.745 102.887 108.431 103.276C108.117 103.664 107.701 103.957 107.23 104.121C105.304 104.764 102.825 103.016 102.178 101.638C101.532 100.261 101.719 99.5294 100.711 98.1518C99.7036 96.7741 98.8746 95.3965 99.2404 93.5597C99.2404 95.7623 100.053 96.128 101.077 97.3228C102.101 98.5175 102.288 100.261 102.841 101.09Z" fill="white" stroke="#263238" stroke-linecap="round" stroke-linejoin="round"/>
<path d="M108.614 61.7809C108.614 60.127 105.77 58.2901 105.77 58.2901C101.482 53.9297 93.745 54.5067 90.8882 54.8969C88.0435 54.4905 80.2979 53.9297 76.0107 58.2901C76.0107 58.2901 73.166 60.127 73.166 61.7809C73.166 63.4349 76.7503 93.2833 76.7503 93.2833C76.7503 93.2833 76.6568 94.8438 79.2292 95.0267C81.8015 95.2096 82.8866 93.7425 82.8866 93.7425L83.8985 68.4861C83.8985 68.4861 88.0313 65.544 88.775 65.4546C89.0432 65.418 89.3927 65.3611 89.7828 65.3123V65.3611C90.5105 65.2094 91.2617 65.2094 91.9894 65.3611V65.3123C92.3958 65.3611 92.725 65.418 92.9973 65.4546C93.7328 65.544 97.8738 68.4861 97.8738 68.4861L98.8857 93.7425C98.8857 93.7425 99.987 95.2096 102.543 95.0267C105.099 94.8438 105.022 93.2833 105.022 93.2833C105.022 93.2833 108.614 63.4349 108.614 61.7809Z" fill="#263238" stroke="#263238" stroke-linecap="round" stroke-linejoin="round"/>
<path d="M97.8697 68.4861C97.8697 68.4861 97.3171 62.423 99.9829 60.127" stroke="#707070" stroke-linecap="round" stroke-linejoin="round"/>
<path d="M83.9115 68.4861C83.9115 68.4861 84.1878 63.4349 83.6352 61.598C83.0825 59.7612 82.1641 59.0257 82.1641 59.0257" stroke="#707070" stroke-linecap="round" stroke-linejoin="round"/>
<path d="M87.3086 56.4533C87.3086 56.4533 90.2467 59.8506 90.7994 62.6993" stroke="#707070" stroke-linecap="round" stroke-linejoin="round"/>
<path d="M93.7372 56.6484C93.7372 56.6484 92.0833 58.4852 91.9004 59.8628" stroke="#707070" stroke-linecap="round" stroke-linejoin="round"/>
<path d="M89.6041 20.9115C89.6041 20.9115 86.9423 20.5417 86.0239 21.4601C85.1055 22.3785 81.9805 25.7637 81.9805 25.7637L83.6344 54.97C83.6344 54.97 87.4015 56.4411 90.616 56.4411C93.8304 56.4411 97.5041 55.2464 98.3372 54.6043C99.1703 53.9622 98.4306 22.6427 98.4306 22.6427C98.4306 22.6427 91.6076 20.6352 89.6041 20.9115Z" fill="#FE0002" stroke="#263238" stroke-linecap="round" stroke-linejoin="round"/>
<path d="M94.4724 21.5536C95.8706 21.3413 97.2809 21.2177 98.6947 21.1838C100.532 21.1838 102.352 21.2772 102.352 21.2772L106.944 16.868L97.7031 14.7549L98.4387 10.5326C98.4387 10.5326 105.233 10.0734 108.631 10.7155C112.028 11.3575 117.356 13.0115 117.632 13.0115C117.908 13.0115 118.274 14.0234 117.998 14.7549C117.721 15.4863 109.082 25.0444 106.501 27.5233C104.813 29.1776 103.219 30.925 101.726 32.7574L100.548 53.2389C100.548 53.2389 103.579 54.8928 104.132 55.4414C104.685 55.99 105.327 58.1967 105.327 58.1967C105.327 58.1967 99.7228 55.9006 98.2517 55.7178C96.7806 55.5349 95.8663 55.4414 95.5899 54.905C95.3136 54.3686 93.0176 29.8315 93.0176 29.8315L93.111 22.025C93.111 22.025 93.0948 21.5536 94.4724 21.5536Z" fill="#7D7D7D" stroke="#263238" stroke-linecap="round" stroke-linejoin="round"/>
<path d="M99.9834 34.135L95.0215 34.7771L95.4807 36.6139L97.9637 37.256L100.349 36.1547L99.9834 34.135Z" stroke="#263238" stroke-linecap="round" stroke-linejoin="round"/>
<path d="M102.828 23.1141L101.727 32.7574L104.575 24.5852" stroke="#263238" stroke-linecap="round" stroke-linejoin="round"/>
<path d="M106.961 16.868C106.961 16.868 109.257 17.3272 112.748 15.9496" stroke="#263238" stroke-linecap="round" stroke-linejoin="round"/>
<path d="M109.35 17.5101C110.858 17.5521 112.366 17.4294 113.848 17.1443" stroke="#263238" stroke-linecap="round" stroke-linejoin="round"/>
<path d="M86.4844 20.818L86.9436 27.5233C87.3622 28.0738 87.9042 28.5184 88.5261 28.8212C89.1479 29.1241 89.8322 29.2766 90.5238 29.2666C92.8198 29.1772 93.0961 27.5233 93.0961 27.5233V22.0128L86.4844 20.818Z" fill="white" stroke="#263238" stroke-linecap="round" stroke-linejoin="round"/>
<path d="M93.1848 24.3088L93.002 29.8274L94.9322 26.7958C94.9322 26.7958 97.0454 29.4576 97.594 29.3682C98.1426 29.2788 97.2283 28.1735 97.0454 27.1656C96.8625 26.1578 95.298 22.5695 95.1151 21.5617C94.9323 20.5539 93.1848 20.3669 93.0832 20.8262C93.0323 21.2228 93.0323 21.6243 93.0832 22.0209L93.1848 24.3088Z" fill="#7D7D7D" stroke="#263238" stroke-linecap="round" stroke-linejoin="round"/>
<path d="M86.8491 29.2666C86.8491 29.2666 87.2148 54.9822 86.2964 55.2748C85.378 55.5674 81.7043 55.6446 79.388 56.7459C77.0716 57.8472 75.9907 58.3064 75.9907 58.3064C75.9907 58.3064 77.0919 55.6446 78.3802 54.4499C79.2364 53.6803 80.1934 53.0309 81.2248 52.5196L78.8394 40.2144C78.8394 40.2144 74.4302 28.5473 74.3367 27.9053C74.2432 27.2632 82.6959 22.4882 84.4393 21.6592C86.1826 20.8302 86.6459 21.5698 86.6459 21.5698L86.8491 29.2666Z" fill="#7D7D7D" stroke="#263238" stroke-linecap="round" stroke-linejoin="round"/>
<path d="M84.554 20.3588C84.554 20.3588 82.3515 27.3404 82.1645 28.2588C81.9776 29.1772 82.1645 29.1772 82.8107 28.5311C83.4568 27.8849 85.1067 26.3285 85.1067 26.3285L86.8501 29.2666L86.7566 23.8496V20.7246C86.7566 20.7246 86.6672 19.4404 84.554 20.3588Z" fill="#7D7D7D" stroke="#263238" stroke-linecap="round" stroke-linejoin="round"/>
<path d="M80.238 35.4232H85.655L85.5656 37.6258L83.1761 38.4508L80.1445 37.6258L80.238 35.4232Z" stroke="#263238" stroke-linecap="round" stroke-linejoin="round"/>
<path d="M95.1159 11.2682C95.1159 11.2682 96.4 16.868 96.6764 17.7702C96.9527 18.6724 95.2093 22.2729 94.6445 23.0978C94.4295 23.4556 94.1338 23.7581 93.781 23.9811C93.4281 24.2041 93.028 24.3414 92.6126 24.382C91.9705 24.382 88.4797 23.1913 87.6507 22.6386C86.8217 22.0859 86.0008 21.4439 86.0008 21.4439C85.6101 21.622 85.176 21.6823 84.7515 21.6173C84.3271 21.5523 83.9308 21.3649 83.6113 21.0781C82.51 20.0662 81.0389 18.8715 81.4047 18.0465C81.5828 17.6417 81.8811 17.3014 82.2591 17.0718C82.637 16.8421 83.0765 16.7341 83.5178 16.7624C84.5297 16.7624 84.164 16.6689 84.164 16.6689C84.164 16.6689 82.3272 14.0071 82.3272 11.894C82.3272 9.78081 86.2731 8.23657 88.5691 8.23657C90.1567 8.30273 91.7163 8.67676 93.1612 9.33786L95.1159 11.2682Z" fill="white" stroke="#263238" stroke-linecap="round" stroke-linejoin="round"/>
<path d="M91.8996 13.3773L93.5536 16.5023L91.8996 17.6036L91.1641 16.6852" stroke="#263238" stroke-linecap="round" stroke-linejoin="round"/>
<path d="M94.9318 16.226C94.9318 16.226 95.0212 16.9615 93.9199 18.1562" stroke="#263238" stroke-linecap="round" stroke-linejoin="round"/>
<path d="M90.1565 14.5273C90.1565 14.958 89.9696 15.3075 89.7501 15.3075C89.5307 15.3075 89.3438 14.958 89.3438 14.5273C89.3438 14.0965 89.5307 13.747 89.7501 13.747C89.9696 13.747 90.1565 14.0965 90.1565 14.5273Z" fill="#263238"/>
<path d="M93.0473 13.8365C93.2762 13.8365 93.4618 13.4871 93.4618 13.0562C93.4618 12.6253 93.2762 12.276 93.0473 12.276C92.8184 12.276 92.6328 12.6253 92.6328 13.0562C92.6328 13.4871 92.8184 13.8365 93.0473 13.8365Z" fill="#263238"/>
<path d="M85.1954 6.48915C85.1954 6.48915 79.4167 8.60231 79.2257 11.2682C79.0347 13.934 84.3705 17.6036 84.6468 18.0628C84.9231 18.522 85.7481 17.5101 85.7481 17.5101C85.5644 17.2634 85.4363 16.9798 85.3724 16.6789C85.3086 16.378 85.3106 16.0668 85.3783 15.7668C85.6546 14.8483 86.8494 13.7349 86.8494 13.2878C86.8494 12.8408 85.4717 13.6536 85.4717 12.276C85.4717 10.8983 88.8691 10.0734 90.8888 10.1628C92.9085 10.2522 94.6559 13.6536 96.127 11.9996C97.5981 10.3457 95.4808 9.89053 95.4808 9.89053C95.4808 9.89053 98.3255 9.52072 98.3255 8.0537C98.3255 6.58668 96.8544 5.57073 96.2123 5.57073C95.5702 5.57073 93.8269 6.67608 93.8269 5.48133C93.8269 4.28658 95.5702 3.7339 93.9163 1.82393C92.2623 -0.0860489 90.1532 1.82393 90.1532 2.55947C90.1532 3.29502 89.6005 4.66857 89.2348 4.66857C88.8691 4.66857 87.7637 3.01868 86.4796 3.93709C86.0934 4.24409 85.7786 4.6313 85.5569 5.07194C85.3352 5.51259 85.2118 5.99614 85.1954 6.48915V6.48915Z" fill="#263238" stroke="#263238" stroke-linecap="round" stroke-linejoin="round"/>
<path d="M87.5859 13.5642L90.524 12.4588" stroke="#263238" stroke-linecap="round" stroke-linejoin="round"/>
<path d="M90.9823 11.1747C90.9261 10.8864 90.9721 10.5875 91.1124 10.3294" stroke="#263238" stroke-linecap="round" stroke-linejoin="round"/>
<path d="M91.1133 10.3213C91.3205 9.91494 91.7879 9.39072 92.8201 8.96402" stroke="white" stroke-linecap="round" stroke-linejoin="round"/>
</g>
</svg>
